<?xml version="1.0" encoding="iso-8859-1"?>
<svg version="1.1" id="Layer_1" xmlns="http://www.w3.org/2000/svg" xmlns:xlink="http://www.w3.org/1999/xlink" x="0px" y="0px"
	 viewBox="0 0 714 714" style="enable-background:new 0 0 714 714;" xml:space="preserve">
<g>
	<path d="M378.899,511.242c-10.347-15.564-11.515-33.336-10.142-51.274c1.457-19.027,5.453-37.622,11.391-55.779
		c6.256-19.13,13.35-37.823,26.603-53.495c6.034-7.136,12.926-9.162,21.694-5.841c2.744,1.039,5.399,2.313,8.094,3.479
		c5.447,2.357,10.667,5.176,15.941,7.969c-2.844-4.84-7.435-7.437-12.034-10.094c-8.394-4.849-17.294-8.851-25.061-14.751
		c-4.519-3.432-6.436-8.125-6.142-13.747c0.081-1.558,0.178-3.197,2.227-3.475c2.653-0.361,5.311-0.859,7.976-0.929
		c10.362-0.27,20.645,0.752,30.928,1.952c4.428,0.517,8.953,1.094,14.432-0.093c-7.337-2.677-13.894-3.934-20.71-4.051
		c-10.7-0.183-21.468,0.84-32.022-1.959c-21.165-5.614-31.834-18.398-33.789-40.199c-0.832-9.283-1.975-18.536-2.522-27.848
		c-0.309-5.267-0.399-5.118,4.996-5.649c15.783-1.552,31.671-0.69,47.456-2.159c5.62-0.523,10.982-1.977,16.199-4.07
		c-13.547,0.849-27.061,1.375-40.585,1.182c-6.179-0.088-12.242,0.613-18.229,1.842c-14.281,2.931-10.365,4.549-20.888-6.917
		c-3.726-4.06-4.706-8.879-3.835-14.255c0.484-2.983,1.966-3.821,4.801-3.207c5.367,1.164,10.744,2.303,16.154,3.233
		c13.178,2.264,25.409-1.02,37.229-6.568c-6.998,0.515-13.94,1.419-20.892,2.228c-15.824,1.843-31.096,0.322-45.31-7.552
		c-2.144-1.188-3.473-2.802-3.877-5.33c-0.887-5.544-2.069-11.042-2.952-16.587c-1.914-12.016-1.179-23.931,1.708-35.724
		c0.88-3.594,2.998-5.384,6.925-5.963c9.331-1.375,18.846-2.357,27.668-5.861c11.758-4.67,23.725-7.047,35.992-6.917
		c0.992-0.397,1.974-0.819,2.931-1.301c2.358-1.187,4.601-2.621,6.535-4.426c2.069-1.931,3.612-4.341,5.689-6.26
		c1.893-1.75,4.087-3.11,6.189-4.591c1.155-2.087,3.139-3.059,6.325-3.282c17.804-1.244,35.262,0.478,52.197,5.977
		c25.171,8.173,43.825,23.228,50.582,50.097c0.655,2.603,2.029,3.723,4.624,4.202c11.135,2.057,20.559,7.41,28.633,15.278
		c5.157,5.025,10.788,9.413,17.62,11.95c1.955,0.726,2.608,1.75,2.81,3.878c0.786,8.314-0.278,16.584-0.405,24.866
		c-0.119,7.762,0.068,15.562-0.976,23.318c-0.502,3.727-2.279,4.774-5.683,4.188c-3.143-0.542-6.347-0.78-9.453-1.472
		c-19.628-4.371-37.96-11.994-55.083-22.482c-5.639-3.454-11.537-6.64-16.048-11.657c-3.246-3.611-2.79-5.64,1.631-7.375
		c3.285-1.29,6.287-3.021,9.961-5.478c-21.401,2.618-37.279-5.565-49.868-22.109c-0.843,3.56,0.356,5.675,1.659,7.698
		c3.577,5.555,8.468,9.878,13.607,13.882c16.73,13.032,34.127,25.066,52.527,35.676c17.755,10.239,35.949,19.394,55.667,25.264
		c4.356,1.297,4.459,1.549,2.613,5.887c-6.446,15.15-12.782,30.348-19.439,45.405c-8.209,18.568-16.815,36.958-26.431,54.85
		c-8.523,15.857-17.266,31.595-25.741,47.477c-13.28,24.888-26.285,49.924-39.665,74.758c-7.331,13.606-15.071,27.061-26.061,38.141
		c-8.654,8.725-18.437,15.724-31.234,17.174c-10.187,1.154-19.091-2.26-27.655-7.211
		C395.66,528.964,385.787,521.603,378.899,511.242z"/>
	<path d="M415.022,93.282c-0.803,0.77-1.791,1.577-2.216,2.637c-0.451,1.124,0.1,2.335,0.658,3.312
		c1.419,2.484,3.124,4.763,3.58,7.668c0.43,2.739-0.122,5.708-2.144,7.731c-1.813,1.814-4.69,2.759-7.229,3.213
		c-0.915,0.525-1.842,1.026-2.791,1.475c-2.024,0.956-4.147,1.543-6.31,2c-4.739,2.041-9.587,3.81-14.573,5.203
		c-9.835,2.747-19.778,5.19-30.16,4.202c-9.173-0.873-14.1-7.57-12.22-16.598c0.871-4.183,2.33-8.15,5.211-11.366
		c1.731-1.932,1.807-3.571,0.562-5.823c-2.52-4.556-5.797-8.688-7.193-13.887c-3.641-13.555-0.973-25.732,11.865-33.611
		c8.993-5.519,18.712-8.689,29.295-8.999c1.912-0.12,3.829-0.401,5.734-0.335c15.643,0.54,27.667,7.183,33.977,21.838
		c3.551,8.248,3.945,19.089-2.067,27.044C417.954,90.619,416.349,92.01,415.022,93.282z"/>
	<path d="M578.006,157.03c-3.368-6.516-6.993-12.858-14.615-15.329c-2.312-0.749-2.602-2.507-2.549-4.554
		c0.303-11.7,9.126-22.77,21.29-25.483c13.418-2.993,25.828,2.649,31.491,12.086c3.496,5.826,3.997,12.257,4.501,17.332
		c0.692,11.887-2.395,28.919-7.171,41.413c-2.229,5.831-3.594,6.359-8.836,2.735C591.613,177.969,583.844,168.324,578.006,157.03z"
		/>
	<path d="M508.584,85.136c-3.364,0.6-6.25,0.138-9.081-0.737c-18.216-5.628-26.249-23.445-18.488-40.9
		c3.008-6.766,8.056-10.389,15.555-10.247c4.618,0.087,9.165,0.722,13.535,2.31c6.552,2.381,12.742,5.626,14.954,12.663
		c2.897,9.216,2.062,18.425-2.522,27.108C519.481,81.12,515.146,85.07,508.584,85.136z"/>
	<path d="M455.607,71.465c-7.409,0.356-13.564-2.62-19.376-6.888c-8.047-5.91-11.308-15.569-8.395-25.786
		c3.41-11.964,10.441-18.24,21.174-18.9c10.475-0.645,20.233,4.349,23.239,12.654c4.281,11.831,2.984,23.072-5.053,33.154
		C464.228,69.422,460.323,71.238,455.607,71.465z"/>
	<path d="M545.79,109.756c-9.971-4.677-17.267-12.176-20.349-23.046c-3.221-11.361,3.477-21.068,14.8-21.79
		c8.518-0.543,21.351,3.596,28.606,9.227c9.077,7.046,10.396,17.85,3.281,26.889C565.21,109.827,554.316,113.755,545.79,109.756z"/>
	<path d="M492.376,86.851c2.069,0.19,4.12,0.543,6.178,0.801c0.731-0.242,1.503-0.333,2.249-0.314
		c5.129-0.224,8.938,0.738,12.641,2.232c1.677,0.677,2.327,1.644,1.57,3.571c-1.232,3.133-2.566,5.331-4.169,6.667
		c-0.129,0.387-0.361,0.741-0.683,1.032c-1.06,0.956-2.616,1.531-3.982,1.853c-2.799,0.66-5.786,0.522-8.622,0.207
		c-3.018-0.335-6.004-0.948-8.845-2.037c-2.444-0.936-5.801-2.155-7.072-4.636c-1.225-2.392-0.365-5.468,1.561-7.237
		C485.665,86.731,489.221,86.562,492.376,86.851z"/>
	<path d="M438.504,77.97c0.699-0.435,1.465-0.82,2.27-1.149c2.603-1.348,5.557-1.917,8.197-1.245
		c0.209,0.053,0.417,0.116,0.626,0.179c3.992-0.413,7.555,1.527,9.919,4.753c1.109,1.513,2.065,3.379,2.387,5.238
		c0.382,2.209-0.248,4.236-1.299,6.169c-0.899,1.653-2.108,3.21-3.865,3.992c-2.028,0.902-4.435,0.735-6.609,0.819
		c-4.397,0.169-8.903,0.628-13.103-0.991c-1.849-0.713-3.914-1.507-5.105-3.181c-1.236-1.736-1.01-3.958-0.266-5.843
		C433.029,83.232,435.285,79.97,438.504,77.97z"/>
	<path d="M557.934,148.298c1.074-0.842,2.261-1.757,3.603-1.95c0.415-0.471,1.05-0.738,1.842-0.518
		c2.446,0.678,4.921,1.44,6.944,3.031c2.128,1.674,3.247,4.092,4.15,6.579c0.498,1.373,0.968,2.757,1.45,4.136
		c0.478,1.367,1.289,2.913,0.388,4.288c-0.833,1.271-2.51,1.347-3.881,1.395c-1.473,0.051-2.952-0.132-4.401-0.385
		c-2.857-0.5-5.673-1.335-8.465-2.112c-2.26-0.629-4.756-1.58-5.628-3.978c-0.446-1.227-0.291-2.395,0.193-3.453
		c-0.029-1.294,0.358-2.606,0.944-3.737C555.748,150.296,556.792,149.194,557.934,148.298z"/>
	<path d="M527.275,106.148c3.634,0.483,7.169,1.687,10.313,3.588c2.891,1.741,5.452,4.248,8.841,4.961
		c0.744,0.161,1.258,0.843,1.372,1.58c0.475,0.537,0.859,1.165,1.112,1.848c0.613,1.61,0.36,3.389,0.023,5.038
		c-0.337,1.641-0.828,3.128-2.224,4.171c-2.546,1.894-6.226,1.618-9.025,0.491c-3.128-1.273-5.582-3.496-8.013-5.781
		c-1.135-1.066-2.27-2.155-3.542-3.052c-1.372-0.974-2.852-1.779-4.186-2.814c-2.262-1.733-5.183-5.352-3.366-8.335
		C520.22,105.151,524.668,105.795,527.275,106.148z"/>
	<path d="M395.54,336.504c0.701-1.591,1.772-4.286,3.854-4.238c0.442,0.01,0.825,0.144,1.166,0.355
		c0.587-0.184,1.259-0.102,1.84,0.43c1.824,1.669,3.588,3.494,4.479,5.845c0.922,2.434,0.36,5.043-1.061,7.159
		c-1.48,2.204-3.454,4.107-5.228,6.07c-2.001,2.214-4.003,4.428-6.005,6.642c-0.909,1.006-2.315,0.538-3.011-0.388
		c-2.306-3.071-1.983-7.228-0.774-10.662C392.139,343.91,393.913,340.197,395.54,336.504z"/>
	<path d="M105.863,381.583c6.198-3.831,10.856-9.241,14.924-15.183c6.369-9.303,14.555-16.405,25.068-20.613
		c2.45-0.981,3.577-2.349,3.707-5.03c1.339-27.673,16.666-46.104,39.737-59.069c15.523-8.724,32.301-13.847,50.001-16.13
		c3.167-0.408,5.304,0.155,6.847,1.973c2.352,1.038,4.771,1.941,6.971,3.284c2.414,1.474,4.401,3.533,6.81,5.019
		c2.252,1.389,4.732,2.354,7.278,3.053c1.033,0.284,2.079,0.505,3.13,0.699c12.001-2.541,24.202-2.565,36.649-0.3
		c9.339,1.699,18.861,0.79,28.28,0.303c3.964-0.205,6.393,1.133,7.963,4.484c5.151,10.995,8.215,22.532,8.703,34.69
		c0.225,5.61,0.148,11.233,0.369,16.844c0.101,2.558-0.884,4.402-2.753,5.988c-12.387,10.516-27.062,15.012-42.939,16.318
		c-6.976,0.574-13.959,1.053-20.922,1.926c12.68,3.114,25.318,3.927,37.793-0.885c5.122-1.976,10.17-4.151,15.203-6.348
		c2.658-1.16,4.277-0.629,5.338,2.2c1.912,5.099,1.9,10.017-0.955,14.731c-8.062,13.312-4.54,10.956-19.119,10.892
		c-6.111-0.027-12.194,0.479-18.235,1.781c-13.221,2.849-26.575,4.993-40.024,6.826c5.526,1.027,11.07,1.396,16.683,0.804
		c15.765-1.665,31.172-5.637,46.953-7.22c5.394-0.541,5.277-0.669,6.01,4.556c1.296,9.237,1.996,18.535,3.006,27.8
		c2.373,21.76-5.573,36.393-25.22,46.061c-9.797,4.821-20.556,5.937-31.01,8.221c-6.661,1.456-12.842,3.979-19.509,8.046
		c5.605,0.086,9.929-1.37,14.168-2.748c9.846-3.2,19.727-6.225,29.939-7.999c2.627-0.456,5.331-0.49,8.003-0.658
		c2.064-0.13,2.481,1.458,2.867,2.969c1.394,5.454,0.437,10.432-3.318,14.687c-6.455,7.313-14.394,12.988-21.67,19.393
		c-3.986,3.509-7.976,6.959-9.813,12.264c4.621-3.776,9.184-7.567,14.061-10.949c2.413-1.674,4.766-3.445,7.251-5.004
		c7.943-4.982,15.099-4.35,22.419,1.459c16.077,12.758,26.71,29.69,36.607,47.215c9.394,16.634,16.971,34.079,22.142,52.448
		c4.876,17.317,7.227,34.972,0.144,52.267c-4.715,11.513-12.947,20.673-22.236,28.856c-7.423,6.539-15.481,11.638-25.696,12.511
		c-12.832,1.096-23.801-3.841-34.002-10.693c-12.955-8.702-23.191-20.371-33.056-32.268c-18.005-21.716-35.681-43.704-53.598-65.493
		c-11.434-13.904-23.103-27.615-34.579-41.485c-12.949-15.65-25.005-31.988-36.706-48.578
		c-9.489-13.453-18.692-27.108-27.992-40.693c-2.663-3.891-2.612-4.158,1.403-6.286c18.177-9.635,34.214-22.191,49.608-35.723
		c15.952-14.023,30.642-29.245,44.481-45.313c4.251-4.936,8.196-10.137,10.61-16.287c0.879-2.239,1.638-4.549,0.112-7.874
		c-9.089,18.697-23.046,29.844-44.544,31.488c4.085,1.687,7.369,2.793,10.844,3.411c4.676,0.832,5.522,2.731,3.05,6.91
		c-3.435,5.807-8.591,10.091-13.44,14.587c-14.725,13.651-31.199,24.733-49.583,32.88c-2.909,1.289-6.004,2.154-8.978,3.303
		c-3.222,1.245-5.17,0.568-6.395-2.988c-2.55-7.399-3.9-15.083-5.544-22.671c-1.754-8.095-4.425-15.994-5.29-24.301
		C103.65,383.811,104.089,382.68,105.863,381.583z"/>
	<path d="M339.105,225.206c-0.346,5.372-2.745,10.068-4.32,15.031c-0.778,2.453-0.381,4.045,1.696,5.599
		c3.457,2.586,5.668,6.189,7.345,10.118c3.62,8.481,0.107,16.016-8.715,18.677c-9.984,3.012-20.214,2.572-30.397,1.814
		c-5.163-0.384-10.264-1.165-15.312-2.234c-2.211-0.022-4.407-0.18-6.58-0.719c-1.019-0.253-2.026-0.562-3.026-0.897
		c-2.579,0.055-5.586-0.307-7.72-1.728c-2.381-1.586-3.506-4.388-3.623-7.158c-0.124-2.938,1.099-5.509,2.001-8.223
		c0.355-1.067,0.656-2.363-0.007-3.376c-0.626-0.956-1.753-1.553-2.692-2.149c-1.551-0.985-3.398-2.034-4.747-3.43
		c-7.459-6.617-9.206-17.323-7.347-26.109c3.303-15.61,13.785-24.488,29.016-28.096c1.855-0.439,3.79-0.541,5.688-0.799
		c10.437-1.779,20.59-0.582,30.493,3.06C334.997,199.786,340.008,211.2,339.105,225.206z"/>
	<path d="M79.03,318.907c3.696-10.367,14.753-18.34,28.498-18.046c12.46,0.267,23.288,9.385,25.887,20.797
		c0.455,1.997,0.516,3.777-1.603,4.966c-6.987,3.923-9.293,10.853-11.313,17.905c-3.502,12.222-9.222,23.208-18.092,32.393
		c-4.426,4.584-5.868,4.335-9.201-0.944c-7.141-11.31-13.518-27.402-15.179-39.193C77.522,331.71,76.749,325.307,79.03,318.907z"/>
	<path d="M183.178,257.873c-2.603,1.414-5.342,2.435-8.758,2.509c-6.447,1.227-11.475-1.793-15.608-6.866
		c-6.203-7.612-8.834-16.477-7.806-26.082c0.785-7.335,6.215-11.735,12.17-15.358c3.972-2.416,8.305-3.933,12.816-4.927
		c7.325-1.614,12.987,0.945,17.267,6.987C204.301,229.722,199.93,248.771,183.178,257.873z"/>
	<path d="M223.671,236.556c-4.668,0.705-8.854-0.307-12.496-3.373c-9.864-8.304-13.347-19.07-11.477-31.512
		c1.313-8.734,9.898-15.55,20.295-16.979c10.653-1.464,18.781,3.306,24.479,14.365c4.866,9.445,3.569,19.556-3.158,26.934
		C236.454,231.318,231.005,235.447,223.671,236.556z"/>
	<path d="M158.201,265.243c-0.883,11.263-6.561,20.052-15.417,26.599c-7.573,5.598-19.026,3.89-27.539-3.367
		c-8.753-7.463-9.586-18.315-2.073-27.009c6.005-6.949,17.773-13.532,26.232-14.675C150.647,245.27,159.124,253.47,158.201,265.243z
		"/>
	<path d="M170.526,265.687c3.337-2.193,6.882-3.886,11.955-4.675c0.728-0.166,1.503-0.228,2.267-0.135
		c1.968-0.658,3.909-1.408,5.9-2.001c3.036-0.904,6.556-1.438,9.414,0.293c2.237,1.355,3.685,4.202,2.955,6.788
		c-0.757,2.682-3.809,4.539-6.021,5.937c-2.572,1.626-5.378,2.815-8.272,3.737c-2.719,0.867-5.62,1.589-8.494,1.493
		c-1.402-0.047-3.041-0.305-4.268-1.033c-0.373-0.221-0.67-0.523-0.873-0.877c-1.834-0.995-3.575-2.888-5.399-5.717
		C168.567,267.757,169.014,266.68,170.526,265.687z"/>
	<path d="M246.664,256.696c-3.799,2.414-8.308,2.851-12.652,3.55c-2.148,0.346-4.475,0.983-6.641,0.497
		c-1.877-0.421-3.369-1.71-4.575-3.154c-1.411-1.689-2.427-3.552-2.488-5.793c-0.051-1.887,0.52-3.904,1.309-5.606
		c1.683-3.628,4.795-6.231,8.79-6.612c0.192-0.102,0.384-0.205,0.578-0.298c2.456-1.178,5.464-1.202,8.282-0.392
		c0.854,0.164,1.681,0.391,2.452,0.68c3.549,1.328,6.403,4.083,8.435,7.223c1.101,1.701,1.76,3.836,0.889,5.781
		C250.205,254.448,248.337,255.633,246.664,256.696z"/>
	<path d="M139.707,346.522c-2.585,1.311-5.181,2.684-7.884,3.736c-1.37,0.533-2.784,1.004-4.239,1.243
		c-1.354,0.223-3.013,0.479-4.08-0.604c-1.154-1.171-0.663-2.846-0.463-4.28c0.201-1.447,0.389-2.896,0.608-4.341
		c0.396-2.616,1.018-5.207,2.775-7.267c1.67-1.958,3.947-3.192,6.212-4.338c0.734-0.371,1.409-0.235,1.908,0.145
		c1.354-0.075,2.698,0.589,3.916,1.203c1.297,0.654,2.537,1.529,3.452,2.669c0.797,0.994,1.435,2.204,1.661,3.479
		c0.683,0.942,1.065,2.057,0.869,3.347C144.059,344.037,141.799,345.46,139.707,346.522z"/>
	<path d="M163.875,297.028c-1.072,1.13-1.97,2.421-2.873,3.689c-1.934,2.718-3.902,5.381-6.719,7.245
		c-2.522,1.656-6.076,2.65-8.945,1.294c-1.573-0.748-2.347-2.11-3.001-3.652c-0.655-1.55-1.253-3.244-0.969-4.944
		c0.114-0.719,0.366-1.411,0.726-2.031c-0.032-0.744,0.337-1.514,1.035-1.819c3.183-1.366,5.2-4.328,7.692-6.603
		c2.708-2.483,5.937-4.359,9.405-5.547c2.487-0.859,6.72-2.365,8.858-0.049c2.368,2.567,0.216,6.69-1.661,8.834
		C166.321,294.722,165.029,295.803,163.875,297.028z"/>
	<path d="M340.026,506.236c-2.398-1.777-4.796-3.554-7.194-5.331c-2.126-1.575-4.436-3.053-6.32-4.923
		c-1.809-1.795-2.874-4.242-2.449-6.81c0.411-2.481,1.781-4.617,3.241-6.612c0.465-0.635,1.107-0.848,1.719-0.783
		c0.293-0.274,0.642-0.481,1.073-0.578c2.032-0.457,3.612,1.974,4.613,3.397c2.322,3.301,4.791,6.592,6.854,10.061
		c1.86,3.129,2.996,7.142,1.339,10.606C342.402,506.308,341.115,507.044,340.026,506.236z"/>
</g>
</svg>
